<?xml version="1.0" encoding="utf-8"?>
<?xml-stylesheet type="text/xsl" href="rss1.xsl"?>
<rss version="2.0" xmlns:atom="http://www.w3.org/2005/Atom" xmlns:content="http://purl.org/rss/1.0/modules/content/" xmlns:dc="http://purl.org/dc/elements/1.1/" xmlns:media="http://search.yahoo.com/mrss/">
<channel>
 <title>Getty</title>
 <link>http://www.gettyimg.com/</link>
 <atom:link href="http://www.gettyimg.com/" rel="self" type="application/rss+xml" />

 
                <item>
                <title><![CDATA[【Albums (lossless)】FLAC - CONCRETE BLONDE - 1986 - Concrete Blonde [2017 Vinyl Rip] [24bit-192kHz]]]></title>
                <link><![CDATA[https://sharemania.us/threads/concrete-blonde-1986-concrete-blonde-2017-vinyl-rip-24bit-192khz.245729/]]></link>
                <description><![CDATA[<article>
<blockquote class="messageText SelectQuoteContainer ugc baseHtml">
<div style="text-align: center"><img src="https://static.qobuz.com/images/covers/32/64/0060255786432_600.jpg" class="bbCodeImage LbImage" alt="[​IMG]" data-url="https://static.qobuz.com/images/covers/32/64/0060255786432_600.jpg" style=""> <br>
<br>
<b>Band</b>: Concrete Blonde<br>
<b>Album</b>: Concrete Blonde [2017 Vinyl Rip]<br>
<b>Date</b>: 01 January 1986<br>
<b>Genre</b>: Post-Punk/Alternative Rock/Indie Rock<br>
<b>Quality</b>: 24bit-192kHz<br>
<b>Country</b>: USA<br>
<b>Size</b>: 1,6GB<br>
<br>
<b>Tracklist</b>:<br>
<br>
1-True 02:58<br>
2-Your Haunted Head 02:47<br>
3-Dance Along The Edge 05:28<br>
4-Still In Hollywood 03:43<br>
5-Song For Kim (She Said) 04:07<br>
6-Beware Of Darkness (George Harrison Cover) 03:42<br>
7-Over Your Shoulder 03:22<br>
8-Little Sister 03:52<br>
9-Make Me Cry 02:17<br>
10-Cold Part Of Town 03:10<br>
11-True, II (Instrumental) 02:24<br>
<br>
<b><span style="font-size: 22px"><span style="color: #b30000">Send.cm</span></span></b>:<br>
<br>
<a href="http:// https://send.cm/d/17OWL" target="_blank" class="externalLink" rel="nofollow">
<div class="bbCodeBlock bbCodeVfcHH HiddenContent">
<div class="attribution type">Hidden Content:</div>
<blockquote>You must either reply or click 'Like' to see the hidden information contained here.</blockquote>
</div> </a>​</div>
<div class="messageTextEndMarker">&nbsp;</div>
</blockquote>
</article>]]></description>
                <author><![CDATA[XRB80]]></author>
                </item>

                
                <item>
                <title><![CDATA[【Apple Music】WEB-RiP - Wallows - You (Show Me Where My Days Went) 'A.M WEB-DL.4K.AAC2.0-fstambuk']]></title>
                <link><![CDATA[https://sharemania.us/threads/wallows-you-show-me-where-my-days-went-a-m-web-dl-4k-aac2-0-fstambuk.245730/]]></link>
                <description><![CDATA[<article>
<blockquote class="messageText SelectQuoteContainer ugc baseHtml">
<div style="text-align: center"><img src="https://i.ibb.co/1rJjhM8/Wallows-You-Show-Me-Where-My-Days-Went-A-M-WEB-DL-4-K-AAC2-0-fstambuk-VTM.gif" class="bbCodeImage LbImage" alt="[​IMG]" data-url="https://i.ibb.co/1rJjhM8/Wallows-You-Show-Me-Where-My-Days-Went-A-M-WEB-DL-4-K-AAC2-0-fstambuk-VTM.gif" style=""><br>
​</div>
<div class="ToggleTriggerAnchor bbCodeSpoilerContainer">
<button type="button" class="button bbCodeSpoilerButton ToggleTrigger Tooltip JsOnly" data-target="> .SpoilerTarget"><span>Spoiler: <span class="SpoilerTitle">Apple Music</span></span></button>
<div class="SpoilerTarget bbCodeSpoilerText">
<div class="bbCodeBlock bbCodeCode">
<div class="type">Code:</div>
<pre>General
Complete name                            : Wallows - You (Show Me Where My Days Went) 'A.M WEB-DL.4K.AAC2.0-fstambuk'.m4v
Format                                   : MPEG-4
Format profile                           : Base Media
Codec ID                                 : isom (isom/iso2/mp41)
File size                                : 246 MiB
Duration                                 : 2 min 48 s
Overall bit rate                         : 12.2 Mb/s
Frame rate                               : 23.976 FPS
Movie name                               : You (Show Me Where My Days Went)
Performer                                : Wallows
Genre                                    : Alternative
ContentType                              : Music Video
Recorded date                            : 2024-05-24 07:00:00 UTC
Copyright                                : ℗ © 2024 Atlantic Recording Corporation
Cover                                    : Yes
Rating                                   : None
GenreID                                  : 1620
AlbumTitleID                             : 1225257328
AppleStoreCatalogID                      : 1747803260

Video
ID                                       : 1
Format                                   : HEVC
Format/Info                              : High Efficiency Video Coding
Format profile                           : Main 10@L5@High
Codec ID                                 : hvc1
Codec ID/Info                            : High Efficiency Video Coding
Duration                                 : 2 min 48 s
Bit rate                                 : 11.9 Mb/s
Width                                    : 2 148 pixels
Height                                   : 1 620 pixels
Display aspect ratio                     : 4:3
Frame rate mode                          : Constant
Frame rate                               : 23.976 (24000/1001) FPS
Color space                              : YUV
Chroma subsampling                       : 4:2:0
Bit depth                                : 10 bits
Scan type                                : Progressive
Bits/(Pixel*Frame)                       : 0.143
Stream size                              : 240 MiB (98%)
Title                                    : Core Media Video
Color range                              : Limited
Color primaries                          : BT.709
Transfer characteristics                 : BT.709
Matrix coefficients                      : BT.709
Codec configuration box                  : hvcC

Audio
ID                                       : 2
Format                                   : AAC LC
Format/Info                              : Advanced Audio Codec Low Complexity
Codec ID                                 : 2 / 40 / mp4a-40-2
Duration                                 : 2 min 48 s
Bit rate mode                            : Constant
Bit rate                                 : 254 kb/s
Channel(s)                               : 2 channels
Channel layout                           : L R
Sampling rate                            : 48.0 kHz
Frame rate                               : 46.875 FPS (1024 SPF)
Compression mode                         : Lossy
Stream size                              : 5.12 MiB (2%)
Title                                    : Core Media Audio
Default                                  : Yes
Alternate group                          : 1</pre>
</div><div style="text-align: center">​</div></div>
</div><div style="text-align: center"><br>
<div class="bbCodeBlock bbCodeVfcHH HiddenContent">
<div class="attribution type">Hidden Content:</div>
<blockquote>You must reply before you can see the hidden data contained here.</blockquote>
</div></div>
<div class="messageTextEndMarker">&nbsp;</div>
</blockquote>
</article>]]></description>
                <author><![CDATA[fstambuk]]></author>
                </item>

                
                <item>
                <title><![CDATA[【Requests】[REQ VID] - Nicki Minaj 1080p Tidal videos]]></title>
                <link><![CDATA[https://sharemania.us/threads/nicki-minaj-1080p-tidal-videos.245728/]]></link>
                <description><![CDATA[<article>
<blockquote class="messageText SelectQuoteContainer ugc baseHtml">
gracias
<div class="messageTextEndMarker">&nbsp;</div>
</blockquote>
</article>]]></description>
                <author><![CDATA[bigquinn]]></author>
                </item>

                </channel></rss>